<svg width="146" height="181" viewBox="0 0 146 181" fill="none" xmlns="http://www.w3.org/2000/svg">
<path d="M115.5 75L117.703 70.5117V70.5117L115.5 75ZM137.25 94.25L133.039 96.9453L133.051 96.9647L133.064 96.9839L137.25 94.25ZM136.5 153.5L132.328 150.745L136.5 153.5ZM112.5 174L114.614 178.531L114.631 178.523L114.647 178.516L112.5 174ZM21.5 158.5L17.8244 161.89L21.5 158.5ZM12 43.25L7.58106 40.9106L12 43.25ZM43.25 11L40.8633 6.60637L40.8519 6.61261L40.8404 6.61891L43.25 11ZM116.75 3.24998L115.515 8.09506L115.57 8.10913L115.626 8.12194L116.75 3.24998ZM138.75 12L143.215 14.2511L145.248 10.2182L141.442 7.78651L138.75 12ZM123.75 41.75L120.958 45.8979L125.662 49.0639L128.215 44.0011L123.75 41.75ZM55.75 46L59.2855 49.5355V49.5355L55.75 46ZM41.75 83.75L36.7541 83.5481L36.2375 96.3336L45.2855 87.2855L41.75 83.75ZM97.75 143.75L94.5151 139.937L94.4861 139.962L94.4575 139.987L97.75 143.75ZM97.75 105.75L94.3924 109.455L94.4529 109.51L94.5151 109.563L97.75 105.75ZM54.5 106L57.7447 109.804L57.7767 109.777L57.8081 109.749L54.5 106ZM54.25 143.5L57.5506 139.744H57.5506L54.25 143.5ZM85 73.25C95.4754 73.25 104.878 75.3556 113.297 79.4883L117.703 70.5117C107.789 65.6444 96.858 63.25 85 63.25V73.25ZM113.297 79.4883C121.67 83.599 128.214 89.4075 133.039 96.9453L141.461 91.5547C135.619 82.4258 127.663 75.4009 117.703 70.5117L113.297 79.4883ZM133.064 96.9839C137.808 104.249 140.25 112.776 140.25 122.75H150.25C150.25 111.057 147.358 100.584 141.436 91.5161L133.064 96.9839ZM140.25 122.75C140.25 133.541 137.567 142.812 132.328 150.745L140.672 156.255C147.1 146.522 150.25 135.292 150.25 122.75H140.25ZM132.328 150.745C127.029 158.769 119.751 165.016 110.353 169.484L114.647 178.516C125.582 173.317 134.305 165.898 140.672 156.255L132.328 150.745ZM110.386 169.469C101.122 173.792 90.6892 176 79 176V186C91.9775 186 103.878 183.541 114.614 178.531L110.386 169.469ZM79 176C55.5925 176 37.8743 168.88 25.1756 155.11L17.8244 161.89C32.7924 178.12 53.4075 186 79 186V176ZM25.1756 155.11C12.4629 141.325 5.75 121.29 5.75 94.25H-4.25C-4.25 122.877 2.87048 145.675 17.8244 161.89L25.1756 155.11ZM5.75 94.25C5.75 75.0417 9.38067 58.8839 16.4189 45.5894L7.58106 40.9106C-0.38067 55.9494 -4.25 73.7916 -4.25 94.25H5.75ZM16.4189 45.5894C23.4883 32.2363 33.2276 22.2187 45.6596 15.3811L40.8404 6.61891C26.6057 14.448 15.5117 25.9304 7.58106 40.9106L16.4189 45.5894ZM45.6367 15.3936C58.3008 8.51435 73.0409 5 90 5V-5C71.6258 -5 55.1993 -1.18103 40.8633 6.60637L45.6367 15.3936ZM90 5C98.9434 5 107.444 6.03764 115.515 8.09506L117.985 -1.59509C109.056 -3.87099 99.7233 -5 90 -5V5ZM115.626 8.12194C123.869 10.0243 130.642 12.7533 136.058 16.2135L141.442 7.78651C134.858 3.58003 126.964 0.475725 117.874 -1.62197L115.626 8.12194ZM134.285 9.74893L119.285 39.4989L128.215 44.0011L143.215 14.2511L134.285 9.74893ZM126.542 37.6021C116.859 31.0845 104.902 28 91 28V38C103.431 38 113.308 40.7488 120.958 45.8979L126.542 37.6021ZM91 28C75.1382 28 62.0101 32.6688 52.2145 42.4645L59.2855 49.5355C66.8232 41.9979 77.1952 38 91 38V28ZM52.2145 42.4645C42.389 52.29 37.4536 66.2362 36.7541 83.5481L46.7459 83.9519C47.3798 68.2638 51.7777 57.0434 59.2855 49.5355L52.2145 42.4645ZM45.2855 87.2855C54.448 78.1231 67.4551 73.25 85 73.25V63.25C65.5449 63.25 49.7187 68.7102 38.2145 80.2145L45.2855 87.2855ZM76.75 155.75C86.3462 155.75 94.606 153.145 101.043 147.513L94.4575 139.987C90.2273 143.689 84.4872 145.75 76.75 145.75V155.75ZM100.985 147.563C107.735 141.835 111 134.038 111 124.75H101C101 131.462 98.7648 136.332 94.5151 139.937L100.985 147.563ZM111 124.75C111 115.462 107.735 107.665 100.985 101.937L94.5151 109.563C98.7648 113.168 101 118.038 101 124.75H111ZM101.108 102.045C94.6402 96.184 86.1677 93.5 76.25 93.5V103.5C84.3323 103.5 90.1932 105.649 94.3924 109.455L101.108 102.045ZM76.25 93.5C66.4163 93.5 57.9232 96.3114 51.1919 102.251L57.8081 109.749C62.4101 105.689 68.417 103.5 76.25 103.5V93.5ZM51.2553 102.196C44.4378 108.011 41 115.669 41 124.75H51C51 118.498 53.2289 113.656 57.7447 109.804L51.2553 102.196ZM41 124.75C41 133.778 44.3127 141.424 50.9494 147.256L57.5506 139.744C53.1873 135.91 51 131.056 51 124.75H41ZM50.9494 147.256C57.606 153.105 66.405 155.75 76.75 155.75V145.75C68.095 145.75 61.8941 143.561 57.5506 139.744L50.9494 147.256Z" fill="white"/>
</svg>
